PathFileType	4	(X/Y/Z)	OpenSim_Sub10_EMGBaseline_Gyro.trc
DataRate	CameraRate	NumFrames	NumMarkers	Units	OrigDataRate	OrigDataStartFrame	OrigNumFrames
100	100	37	8	m	100	6151	8201
Frame#	Time	torso_imu_offset_imu	pelvis_imu_offset_imu	tibia_r_imu_offset_imu	femur_r_imu_offset_imu	tibia_l_imu_offset_imu	femur_l_imu_offset_imu	toes_r_imu_offset_imu	toes_l_imu_offset_imu
				X1	Y1	Z1	X2	Y2	Z2	X3	Y3	Z3	X4	Y4	Z4	X5	Y5	Z5	X6	Y6	Z6	X7	Y7	Z7	X8		Y8	Z8	

6151	61.50000000	0.35355200	0.28936700	-0.22248000	0.37087100	0.06203000	0.03236100	-0.40512400	-0.45173400	-0.30613000	-0.08305200	-0.33345800	-1.38681300	0.42925700	-0.39909200	2.96596200	0.10182300	0.97464700	-1.73953800	0.46451800	0.21414200	-0.24973900	-0.07636300	-5.79677500	0.65141100
6152	61.51000000	0.37672400	0.25666800	-0.22441800	0.41214400	0.10161400	0.04178000	-0.55758500	-0.33164400	-0.20368000	-0.04757500	-0.38201700	-1.39608000	0.24367700	-0.41255200	2.99158600	0.02705300	0.80019800	-1.93165200	0.43010100	0.17031700	-0.19342000	-0.24839500	-6.17306900	0.76520800
6153	61.52000000	0.41370600	0.20983300	-0.23146400	0.47475900	0.14099400	0.05617200	-0.57938600	-0.13221200	-0.37423500	-0.01912400	-0.32435300	-1.34059200	0.08161900	-0.39791500	2.91922600	0.03130000	0.66395600	-2.10253800	0.37963500	0.11459600	-0.14761200	0.38108600	-6.48501200	0.96982400
6154	61.53000000	0.42080500	0.16024000	-0.23484500	0.54297100	0.15746000	0.08245900	-0.82640700	-0.14199800	-0.54787800	-0.02217400	-0.19327900	-1.24295500	-0.12924100	-0.40956800	2.77069700	0.12802000	0.60662200	-2.25806600	0.21717700	0.06616200	-0.08470800	-0.95210100	-6.27604700	1.27285300
6155	61.54000000	0.45318300	0.11003900	-0.22514800	0.55718900	0.14476600	0.11512300	-0.84682200	-0.11760400	-0.57945100	-0.05086800	-0.06349900	-1.12492400	-0.44316500	-0.48989100	2.59002900	0.33463600	0.56755800	-2.36794600	0.09292000	0.03152100	-0.03544400	0.42426100	-5.98912300	1.31908400
6156	61.55000000	0.51885800	0.07759800	-0.20116400	0.52386700	0.13070200	0.14015600	-0.44443200	-0.04366400	-0.54230300	-0.04331100	0.02390500	-1.01745300	-0.63253500	-0.58048700	2.43134200	0.60921100	0.58162100	-2.42847700	0.10495200	0.04504700	-0.00993600	-0.54267000	-5.09131200	1.52908900
6157	61.56000000	0.54419100	0.01938900	-0.16310900	0.46833600	0.12236800	0.14389400	0.16939200	-0.12888200	-0.57738600	0.05738500	0.08114100	-0.94704200	-0.42306300	-0.63630800	2.27301000	0.89288700	0.64035300	-2.38266500	0.06518600	0.03848500	0.01828500	-0.79599400	-4.33301400	1.62881700
6158	61.57000000	0.53051800	-0.05891700	-0.10307700	0.40576400	0.11753500	0.14821200	0.81247700	-0.20168600	-0.66492200	0.20454000	0.11852900	-0.92034600	-0.31329000	-0.52200400	2.11572100	1.09470900	0.66513200	-2.23485100	-0.00429800	0.02438800	0.04190200	-0.85613700	-3.47829300	1.30952000
6159	61.58000000	0.52689400	-0.10614000	-0.02167400	0.33750800	0.12633900	0.14418700	1.25395100	-0.24099800	-0.71020100	0.36175700	0.14756700	-0.93704300	0.09908700	-0.17017600	1.93917300	1.17890300	0.65530500	-2.08083100	-0.02371400	0.02098800	0.04925100	0.24882300	-2.12385800	1.14573700
6160	61.59000000	0.51794400	-0.16413100	0.05614100	0.26202200	0.12507300	0.12902500	1.41959700	-0.27180700	-0.61981400	0.51505200	0.14461900	-1.00611900	0.60623500	0.13084000	1.72887700	1.12548100	0.61062000	-1.91037000	0.00175200	0.01214900	0.03982900	1.80174100	0.96473300	1.35892900
6161	61.60000000	0.46004300	-0.20256500	0.11030500	0.19585400	0.11787400	0.08750400	1.38030800	-0.24434500	-0.46388300	0.62734400	0.11236900	-1.07189100	0.90461300	-0.10214000	1.47747400	1.05302800	0.55215300	-1.74002100	-0.01897700	0.02000600	0.03633300	1.76955800	1.91102800	1.44689300
6162	61.61000000	0.36004600	-0.19106000	0.15442200	0.17778600	0.11103200	0.02363100	1.07743500	-0.20664500	-0.34664600	0.66939300	0.06607700	-1.11073800	1.87270000	-0.74935100	1.11519200	1.00058200	0.54736200	-1.61844900	-0.03814500	-0.00039500	0.02452200	0.65663800	1.95794100	1.74007100
6163	61.62000000	0.29931800	-0.14951700	0.21884600	0.20341300	0.10093000	-0.04092700	0.60898100	-0.12854100	-0.32365800	0.64566400	-0.00519200	-1.09718500	2.64645400	-1.19383000	0.60352500	0.92592700	0.61344500	-1.55687200	-0.03147300	-0.00543800	-0.00470700	0.39696700	2.09558400	1.74978100
6164	61.63000000	0.29086200	-0.11611500	0.25896900	0.24590700	0.10213700	-0.10853000	0.14497600	-0.04588600	-0.34518900	0.54095700	-0.06633000	-1.04632300	2.94544000	-1.23864400	-0.07573900	0.82755800	0.68221300	-1.56947300	0.01204600	-0.02364600	-0.04115400	0.39248800	2.52618600	1.49050900
6165	61.64000000	0.28424000	-0.11094800	0.28150000	0.30468100	0.11530600	-0.17274700	-0.19875700	-0.03827600	-0.37049500	0.36898700	-0.10195200	-1.01132300	3.06235300	-0.98671300	-0.78906100	0.73775200	0.69945500	-1.61482900	0.00556800	-0.02687800	-0.04389100	0.71872900	2.99179400	1.09262100
6166	61.65000000	0.28740600	-0.10744000	0.28788300	0.37637500	0.13697800	-0.22805000	-0.42975100	-0.10765300	-0.40074900	0.17059800	-0.11647000	-1.00101100	2.79933200	-0.69393500	-1.40946100	0.62593100	0.66320000	-1.62242600	0.04844500	-0.03041500	-0.04393000	0.74304400	3.41617500	0.70485500
6167	61.66000000	0.31689900	-0.11426400	0.27089200	0.45124700	0.15830400	-0.25810900	-0.62430000	-0.14450500	-0.43233100	0.00547200	-0.10160800	-1.01922300	2.15601600	-0.46990700	-1.95201400	0.45576000	0.58100700	-1.57793900	0.03647600	-0.03957900	-0.03454100	0.56826700	3.75177700	0.36899100
6168	61.67000000	0.29505600	-0.10065500	0.21232800	0.51918400	0.18312700	-0.24926800	-0.73579100	-0.11142900	-0.44853100	-0.15057900	-0.08992600	-1.03426300	1.54480000	-0.30089700	-2.46734300	0.21236300	0.47480600	-1.51830300	0.01526300	-0.05861100	-0.02055800	0.48839300	4.00610400	0.09360900
6169	61.68000000	0.35268800	-0.04028800	0.20061600	0.54940500	0.19011500	-0.22611700	-0.69246800	-0.05207500	-0.42092500	-0.24601700	-0.08433100	-1.03873200	1.06999200	-0.18389800	-2.92832900	-0.06994300	0.37770000	-1.45280000	0.00574900	-0.04739700	-0.01657100	0.63007800	4.27566600	-0.15439900
6170	61.69000000	0.37251400	-0.04293300	0.19240700	0.53454700	0.19295400	-0.19866200	-0.50798100	0.00019800	-0.35478900	-0.28888300	-0.07085200	-1.04039400	0.66050700	-0.14743100	-3.27829400	-0.29120100	0.30314200	-1.38100000	0.00699000	-0.04472900	-0.02064500	0.84846200	4.50678100	-0.32499100
6171	61.70000000	0.39932300	-0.09150200	0.15340500	0.49357600	0.18552000	-0.18149700	-0.24698800	0.01826600	-0.29589600	-0.30823800	-0.03813900	-1.05008700	0.27578700	-0.11809200	-3.56252600	-0.45943800	0.24046500	-1.27223300	-0.00972200	-0.04884500	-0.01807700	0.94621500	4.69425400	-0.41307100
6172	61.71000000	0.41059200	-0.13084600	0.10326500	0.43962100	0.18197900	-0.17442000	-0.03881800	-0.01927200	-0.25995300	-0.26181000	0.00586800	-1.04924400	-0.15392200	-0.07929100	-3.87965300	-0.60634700	0.18933000	-1.17060500	-0.01139200	-0.05090900	-0.03415200	0.99169600	4.82561600	-0.43827500
6173	61.72000000	0.41580800	-0.10656100	0.07291600	0.37005300	0.18955000	-0.17471600	0.06139000	-0.07352900	-0.22751300	-0.15027100	0.04843900	-1.06157800	-0.59190500	0.00037300	-4.24692900	-0.73111400	0.14572500	-1.08110300	-0.01511800	-0.04232900	-0.04630500	1.04421700	4.85868400	-0.45385800
6174	61.73000000	0.40208500	-0.07041200	0.05408200	0.31146600	0.19363800	-0.18245400	0.05903300	-0.07773100	-0.20177000	0.01476600	0.07884100	-1.09226600	-0.78425100	0.28617400	-4.60506800	-0.80106100	0.11349200	-0.97525600	-0.05167900	-0.04978100	-0.04745200	1.11166600	4.89433200	-0.50339200
6175	61.74000000	0.40076200	-0.04833000	0.04703400	0.26624500	0.18027000	-0.18846600	0.00182800	-0.06326700	-0.19668500	0.19371500	0.10420700	-1.11663200	-0.80289300	0.57925000	-4.90957500	-0.81200700	0.08065700	-0.85711000	-0.02732300	-0.04604900	-0.06694000	1.07409800	5.01163000	-0.59309100
6176	61.75000000	0.38966100	-0.04485000	0.06301500	0.23549400	0.16161000	-0.19562900	-0.05706400	-0.04175500	-0.20936100	0.33403500	0.12631700	-1.13239600	-0.95921700	0.66855000	-5.14316800	-0.81236300	0.03335000	-0.70516800	-0.03138700	-0.03410000	-0.07296600	0.95328300	5.11923500	-0.71624900
6177	61.76000000	0.34654200	-0.05513300	0.06749100	0.19893500	0.13812200	-0.20168200	-0.18587800	-0.03153000	-0.21907800	0.42211900	0.13955000	-1.13621700	-1.29448900	0.66062100	-5.33009300	-0.80818700	-0.00924700	-0.53450800	-0.02449300	-0.04763500	-0.07049400	0.84894300	5.20493600	-0.82610800
6178	61.77000000	0.30727900	-0.07801800	0.04420700	0.15434500	0.11987500	-0.19156600	-0.35280000	-0.00695100	-0.24016800	0.48676200	0.14506800	-1.14423300	-1.64348800	0.61080700	-5.49752900	-0.84906200	-0.03800500	-0.35636700	-0.05259000	-0.05268400	-0.06797500	0.77396300	5.20312200	-0.92104600
6179	61.78000000	0.26461800	-0.09670300	0.02849000	0.10123500	0.10790100	-0.17171800	-0.50183800	0.00166700	-0.29237100	0.51373200	0.12054900	-1.15550500	-1.83681600	0.64967600	-5.69242800	-0.86701500	-0.05184500	-0.14315300	-0.07342000	-0.06262600	-0.06468400	0.91380900	5.07141300	-0.97279900
6180	61.79000000	0.21850600	-0.09146100	0.02020600	0.06325000	0.08979800	-0.14498400	-0.55687100	0.01212200	-0.34674300	0.51661600	0.08116800	-1.16731700	-1.84921100	0.79523600	-5.89285200	-0.85928700	-0.07074200	0.04697200	-0.11191900	-0.08226700	-0.06987200	1.02776800	4.92528600	-1.01417800
6181	61.80000000	0.15004700	-0.08431600	0.00789100	0.02711400	0.04471600	-0.11402200	-0.59008900	0.03966800	-0.37631100	0.49629800	0.04335400	-1.16477000	-1.62349900	0.97385800	-5.95012700	-0.82304300	-0.08390500	0.20392800	-0.12045600	-0.09980600	-0.07625400	0.91989100	4.89435300	-1.10390800
6182	61.81000000	0.07479100	-0.07573300	-0.00506700	-0.01955300	-0.01319700	-0.09327300	-0.59388800	0.05928800	-0.39219800	0.44992700	0.03392300	-1.14678700	-1.10480800	1.20546000	-5.82533900	-0.77126200	-0.08196000	0.34771000	-0.10080900	-0.09700700	-0.09924800	0.51911800	5.08453000	-1.29374200
6183	61.82000000	0.03967800	-0.05917600	0.00017500	-0.07067900	-0.07387900	-0.06381900	-0.53591800	0.05811100	-0.39919700	0.39249600	0.05383400	-1.12945000	-0.45568500	1.42428600	-5.68467200	-0.70960400	-0.06477200	0.49244200	-0.07501700	-0.09957700	-0.11785700	0.12633400	5.19980200	-1.64572400
6184	61.83000000	0.01111000	-0.04239200	0.02039500	-0.11520800	-0.11651100	-0.04333300	-0.44677300	0.06159100	-0.42790900	0.30082500	0.06858600	-1.07556100	-0.09710500	1.56163400	-5.55928000	-0.63650700	-0.01194800	0.63970800	-0.04994500	-0.09183500	-0.13492500	0.18207500	5.05277200	-2.13418500
6185	61.84000000	-0.05004600	-0.05413500	0.03447700	-0.14517500	-0.15281700	-0.03458800	-0.34359300	0.06731400	-0.49329900	0.18176200	0.05971100	-1.01061400	-0.01403600	1.45755200	-5.30494200	-0.53317800	0.06003900	0.76224300	-0.06811600	-0.09715000	-0.15531400	0.38259600	4.78040700	-2.53423000
6186	61.85000000	-0.08862200	-0.03784400	0.03895200	-0.15687600	-0.18311100	-0.01734700	-0.25716300	0.06677700	-0.58126600	0.08611400	0.02289700	-0.95201700	0.01293400	1.21043000	-4.67579400	-0.37891700	0.12649100	0.86372100	-0.00263700	-0.10945800	-0.17807100	-0.02929800	4.53434700	-2.73726800
6187	61.86000000	-0.12666700	-0.01178000	0.03832800	-0.16728400	-0.19855100	-0.00656400	-0.22439400	0.06267900	-0.64905800	0.02630300	-0.01187800	-0.90525600	-0.13878500	1.18964200	-3.80135300	-0.13489900	0.20015800	0.96289300	-0.03464500	-0.11185400	-0.17641800	0.08159500	4.21324000	-2.66796000
